<svg width="328" height="85" viewBox="0 0 328 85" fill="none" xmlns="http://www.w3.org/2000/svg">
<rect width="328" height="85" fill="#C4C4C4" fill-opacity="0.15"/>
<path d="M128 12L131.368 22.0193L142.266 22.0193L133.449 28.2115L136.817 38.2307L128 32.0385L119.183 38.2307L122.551 28.2115L113.734 22.0193L124.632 22.0193L128 12Z" fill="#FF9900"/>
<path d="M164.5 12L167.755 22.0193L178.29 22.0193L169.767 28.2115L173.023 38.2307L164.5 32.0385L155.977 38.2307L159.233 28.2115L150.71 22.0193L161.245 22.0193L164.5 12Z" fill="#FF9900"/>
<path d="M200.5 12L203.755 22.0193L214.29 22.0193L205.767 28.2115L209.023 38.2307L200.5 32.0385L191.977 38.2307L195.233 28.2115L186.71 22.0193L197.245 22.0193L200.5 12Z" fill="#FF9900"/>
<path d="M236.5 12L239.755 22.0193L250.29 22.0193L241.767 28.2115L245.023 38.2307L236.5 32.0385L227.977 38.2307L231.233 28.2115L222.71 22.0193L233.245 22.0193L236.5 12Z" fill="#FF9900"/>
<path d="M273 12L276.368 22.0193L287.266 22.0193L278.449 28.2115L281.817 38.2307L273 32.0385L264.183 38.2307L267.551 28.2115L258.734 22.0193L269.632 22.0193L273 12Z" fill="#FF9900"/>
<path d="M134.057 65.4434H129.627V72H127.975V65.4434H114.756V64.2656L127.5 46.1602H129.627V63.9316H134.057V65.4434ZM127.975 63.9316V56.584C127.975 53.0449 128.057 50.0742 128.221 47.6719H128.08C127.846 48.1055 127.125 49.207 125.918 50.9766L116.848 63.9316H127.975ZM137.414 70.6289C137.414 69.4805 137.883 68.9062 138.82 68.9062C139.781 68.9062 140.262 69.4805 140.262 70.6289C140.262 71.7773 139.781 72.3516 138.82 72.3516C137.883 72.3516 137.414 71.7773 137.414 70.6289ZM145.447 61.0488C145.447 57.709 145.898 54.9023 146.801 52.6289C147.715 50.3438 149.004 48.6504 150.668 47.5488C152.344 46.4473 154.359 45.8965 156.715 45.8965C157.816 45.8965 158.824 46.0312 159.738 46.3008V47.8477C158.883 47.5312 157.852 47.373 156.645 47.373C153.75 47.373 151.494 48.416 149.877 50.502C148.271 52.5879 147.369 55.623 147.17 59.6074H147.398C148.289 58.459 149.309 57.5918 150.457 57.0059C151.605 56.4199 152.818 56.127 154.096 56.127C156.498 56.127 158.373 56.8125 159.721 58.1836C161.08 59.5547 161.76 61.4473 161.76 63.8613C161.76 66.4863 161.045 68.5605 159.615 70.084C158.197 71.5957 156.281 72.3516 153.867 72.3516C151.266 72.3516 149.209 71.3613 147.697 69.3809C146.197 67.3887 145.447 64.6113 145.447 61.0488ZM153.867 70.8047C155.789 70.8047 157.283 70.2012 158.35 68.9941C159.416 67.7871 159.949 66.0645 159.949 63.8262C159.949 61.8574 159.422 60.3223 158.367 59.2207C157.312 58.1191 155.877 57.5684 154.061 57.5684C152.865 57.5684 151.752 57.832 150.721 58.3594C149.701 58.8867 148.887 59.5898 148.277 60.4688C147.668 61.3359 147.363 62.2266 147.363 63.1406C147.363 64.4414 147.65 65.6953 148.225 66.9023C148.811 68.0977 149.596 69.0469 150.58 69.75C151.576 70.4531 152.672 70.8047 153.867 70.8047ZM176.684 64.5352V72H175.488V54.8672H179.566C181.691 54.8672 183.262 55.2617 184.277 56.0508C185.293 56.832 185.801 58.0117 185.801 59.5898C185.801 60.7383 185.496 61.707 184.887 62.4961C184.285 63.2852 183.367 63.8516 182.133 64.1953L186.785 72H185.355L180.938 64.5352H176.684ZM176.684 63.5039H179.953C181.398 63.5039 182.52 63.1836 183.316 62.543C184.113 61.8945 184.512 60.9414 184.512 59.6836C184.512 58.3789 184.121 57.4297 183.34 56.8359C182.559 56.2422 181.285 55.9453 179.52 55.9453H176.684V63.5039ZM197.203 72L196.91 69.9844H196.816C196.176 70.8047 195.516 71.3867 194.836 71.7305C194.164 72.0664 193.367 72.2344 192.445 72.2344C191.195 72.2344 190.223 71.9141 189.527 71.2734C188.832 70.6328 188.484 69.7461 188.484 68.6133C188.484 67.3711 189 66.4062 190.031 65.7188C191.07 65.0312 192.57 64.668 194.531 64.6289L196.957 64.5586V63.7148C196.957 62.5039 196.711 61.5898 196.219 60.9727C195.727 60.3555 194.934 60.0469 193.84 60.0469C192.66 60.0469 191.438 60.375 190.172 61.0312L189.738 60.0234C191.137 59.3672 192.52 59.0391 193.887 59.0391C195.285 59.0391 196.328 59.4023 197.016 60.1289C197.711 60.8555 198.059 61.9883 198.059 63.5273V72H197.203ZM192.516 71.1797C193.875 71.1797 194.945 70.793 195.727 70.0195C196.516 69.2383 196.91 68.1562 196.91 66.7734V65.5195L194.684 65.6133C192.895 65.6992 191.617 65.9805 190.852 66.457C190.094 66.9258 189.715 67.6602 189.715 68.6602C189.715 69.457 189.957 70.0781 190.441 70.5234C190.934 70.9609 191.625 71.1797 192.516 71.1797ZM205.559 71.2031C206.293 71.2031 206.934 71.1406 207.48 71.0156V71.9531C206.918 72.1406 206.27 72.2344 205.535 72.2344C204.41 72.2344 203.578 71.9336 203.039 71.332C202.508 70.7305 202.242 69.7852 202.242 68.4961V60.2695H200.355V59.5898L202.242 59.0625L202.828 56.1797H203.426V59.2617H207.164V60.2695H203.426V68.332C203.426 69.3086 203.598 70.0312 203.941 70.5C204.285 70.9688 204.824 71.2031 205.559 71.2031ZM211.395 72H210.234V59.2617H211.395V72ZM210.07 55.7227C210.07 54.9727 210.316 54.5977 210.809 54.5977C211.051 54.5977 211.238 54.6953 211.371 54.8906C211.512 55.0859 211.582 55.3633 211.582 55.7227C211.582 56.0742 211.512 56.3516 211.371 56.5547C211.238 56.7578 211.051 56.8594 210.809 56.8594C210.316 56.8594 210.07 56.4805 210.07 55.7227ZM224.555 72V63.7383C224.555 62.457 224.285 61.5273 223.746 60.9492C223.207 60.3633 222.371 60.0703 221.238 60.0703C219.715 60.0703 218.598 60.457 217.887 61.2305C217.184 61.9961 216.832 63.2422 216.832 64.9688V72H215.672V59.2617H216.656L216.879 61.0078H216.949C217.777 59.6797 219.25 59.0156 221.367 59.0156C224.258 59.0156 225.703 60.5664 225.703 63.668V72H224.555ZM239.766 59.2617V60.0703L237.129 60.2344C237.832 61.1094 238.184 62.0703 238.184 63.1172C238.184 64.3438 237.773 65.3398 236.953 66.1055C236.141 66.8633 235.047 67.2422 233.672 67.2422C233.094 67.2422 232.688 67.2188 232.453 67.1719C231.992 67.4141 231.641 67.6992 231.398 68.0273C231.156 68.3555 231.035 68.7031 231.035 69.0703C231.035 69.4766 231.188 69.7734 231.492 69.9609C231.805 70.1484 232.324 70.2422 233.051 70.2422H235.277C236.66 70.2422 237.719 70.5234 238.453 71.0859C239.188 71.6406 239.555 72.4648 239.555 73.5586C239.555 74.9023 239.008 75.9375 237.914 76.6641C236.828 77.3984 235.277 77.7656 233.262 77.7656C231.66 77.7656 230.418 77.457 229.535 76.8398C228.66 76.2227 228.223 75.3633 228.223 74.2617C228.223 73.3867 228.492 72.6602 229.031 72.082C229.578 71.5039 230.316 71.1094 231.246 70.8984C230.863 70.7344 230.555 70.5039 230.32 70.207C230.094 69.9023 229.98 69.5547 229.98 69.1641C229.98 68.3125 230.523 67.5625 231.609 66.9141C230.867 66.6094 230.289 66.1328 229.875 65.4844C229.461 64.8281 229.254 64.0781 229.254 63.2344C229.254 61.9609 229.656 60.9414 230.461 60.1758C231.273 59.4023 232.367 59.0156 233.742 59.0156C234.578 59.0156 235.227 59.0977 235.688 59.2617H239.766ZM229.453 74.1562C229.453 75.9062 230.754 76.7812 233.355 76.7812C236.699 76.7812 238.371 75.7148 238.371 73.582C238.371 72.8164 238.109 72.2617 237.586 71.918C237.062 71.5742 236.215 71.4023 235.043 71.4023H232.957C230.621 71.4023 229.453 72.3203 229.453 74.1562ZM230.426 63.2344C230.426 64.2188 230.723 64.9844 231.316 65.5312C231.918 66.0703 232.719 66.3398 233.719 66.3398C234.781 66.3398 235.594 66.0703 236.156 65.5312C236.727 64.9922 237.012 64.2109 237.012 63.1875C237.012 62.1016 236.719 61.2891 236.133 60.75C235.555 60.2031 234.742 59.9297 233.695 59.9297C232.68 59.9297 231.879 60.2227 231.293 60.8086C230.715 61.3867 230.426 62.1953 230.426 63.2344Z" fill="white"/>
<path d="M37.1838 51.6759L34.956 59.9924L26.8136 60.1647C24.3803 55.6513 23 50.4874 23 44.9999C23 39.6936 24.2905 34.6896 26.578 30.2834H26.5798L33.8287 31.6124L37.0042 38.8179C36.3396 40.7556 35.9774 42.8356 35.9774 44.9999C35.9776 47.3489 36.4031 49.5996 37.1838 51.6759Z" fill="#FBBB00"/>
<path d="M86.4409 39.022C86.8084 40.9577 87 42.9568 87 45C87 47.291 86.7591 49.5257 86.3002 51.6813C84.7425 59.0167 80.6721 65.422 75.0335 69.9547L75.0317 69.953L65.9012 69.4871L64.609 61.4202C68.3505 59.226 71.2745 55.7921 72.8147 51.6813H55.7035V39.022H73.0644H86.4409Z" fill="#518EF8"/>
<path d="M75.0316 69.9531L75.0333 69.9549C69.5495 74.3628 62.5832 77.0001 55 77.0001C42.8136 77.0001 32.2185 70.1888 26.8136 60.165L37.1837 51.6763C39.8861 58.8885 46.8435 64.0226 55 64.0226C58.5058 64.0226 61.7903 63.0749 64.6087 61.4204L75.0316 69.9531Z" fill="#28B446"/>
<path d="M75.4255 20.367L65.0589 28.854C62.142 27.0308 58.694 25.9775 55 25.9775C46.6589 25.9775 39.5714 31.3471 37.0044 38.818L26.5798 30.2835H26.578C31.9038 20.0154 42.6325 13 55 13C62.7644 13 69.8835 15.7657 75.4255 20.367Z" fill="#F14336"/>
</svg>
